<?xml version="1.0" encoding="iso-8859-1"?><svg xmlns="http://www.w3.org/2000/svg" viewBox="0 0 20 20"><path d="M16.708 15.21l-1.497 1.497L3.295 4.79 4.79 3.293z"/><path d="M4.79 4L16 15.21l-.79.79L4 4.79 4.79 4m0-1.414l-.707.707-.79.79-.707.707.707.707 11.21 11.21.707.707.707-.707.79-.79.707-.707-.707-.707-11.21-11.21-.707-.707z"/><g><path d="M16.708 4.79L4.79 16.707 3.295 15.21 15.21 3.293z"/><path d="M15.21 4l.79.79L4.79 16 4 15.21 15.21 4m0-1.414l-.707.707-11.21 11.21-.707.707.707.707.79.79.707.707.707-.707 11.21-11.21.707-.707-.707-.707-.79-.79-.707-.707z"/></g></svg>