<?xml version="1.0" encoding="utf-8"?><svg xmlns="http://www.w3.org/2000/svg" width="20" height="20" viewBox="0 0 20 20"><g fill="#FFF"><path d="M10.534 11.418l-.938-.73c-.286-.236-.677-.548-.677-1.12 0-.576.39-.94.73-1.28 1.09-.86 2.182-1.775 2.182-3.704 0-1.983-1.248-3.026-1.845-3.52H11.6L13.293 0H8.165C6.757 0 4.73.333 3.245 1.56c-1.12.963-1.665 2.294-1.665 3.493 0 2.034 1.562 4.096 4.32 4.096.26 0 .545-.026.83-.053-.127.313-.257.574-.257 1.017 0 .808.414 1.302.78 1.772-1.172.08-3.36.21-4.972 1.2C.745 14.002.278 15.33.278 16.27c0 1.93 1.82 3.73 5.596 3.73 4.476 0 6.845-2.478 6.845-4.93 0-1.8-1.04-2.687-2.184-3.652zm-3.41-3c-2.24 0-3.254-2.895-3.254-4.64 0-.68.13-1.383.572-1.932.417-.522 1.145-.86 1.823-.86 2.16 0 3.278 2.92 3.278 4.798 0 .47-.052 1.303-.65 1.905-.418.417-1.12.728-1.77.728zm.025 10.488c-2.785 0-4.58-1.332-4.58-3.184s1.664-2.48 2.237-2.686c1.092-.367 2.498-.42 2.732-.42.26 0 .39 0 .597.027 1.98 1.408 2.84 2.11 2.84 3.443 0 1.617-1.328 2.82-3.828 2.82zM17.105 8.378V5.77h-1.287V8.38h-2.603V9.68h2.603v2.625h1.287V9.68h2.618V8.38"/></g></svg>