<?xml version="1.0" encoding="utf-8"?><svg xmlns="http://www.w3.org/2000/svg" width="20" height="20" viewBox="0 0 20 20"><path fill="#FFF" d="M16.836.085H2.994C1.34.085 0 1.425 0 3.08v13.84c0 1.654 1.34 2.995 2.995 2.995h13.842c1.654 0 2.995-1.34 3.164-2.938V3.137c-.17-1.71-1.51-3.052-3.164-3.052zm-3.096 3.16c0-.49.402-.895.895-.895h2.25c.49 0 .894.403.894.896V5.39c0 .492-.403.895-.896.895h-2.25c-.49 0-.894-.403-.894-.896V3.245zm-3.63 2.926c2.206 0 3.994 1.734 3.994 3.872s-1.788 3.87-3.994 3.87-3.994-1.732-3.994-3.87 1.788-3.87 3.994-3.87zm7.678 10.782c0 .436-.356.79-.79.79H3.148c-.435 0-.79-.354-.79-.79v-8.4h1.825c-.166.54-.255 1.112-.255 1.706 0 3.31 2.768 5.99 6.182 5.99 3.415 0 6.182-2.682 6.182-5.99 0-.593-.09-1.166-.255-1.707h1.75v8.402z"/></svg>