<?xml version="1.0" encoding="utf-8"?><svg xmlns="http://www.w3.org/2000/svg" width="32" height="32" viewBox="0 0 32 32"><path d="M26.4 25.3c0-.2-.3-.6-1-1.2l-.7-.7s-.6-.6-.9-.8c-.3-.2-.5-.5-.7-.7 0 0-.2-.2-.3-.4-.2-.2-.3-.4-.5-.5-.1-.1-.3-.2-.4-.2-.2-.1-.5 0-.9.2s-.8.5-1.2.8c-.4.3-.7.5-1.1.8-.4.2-.7.3-.9.3-.1 0-.2-.1-.3-.2-.1-.1-.2-.2-.3-.2s-.2-.2-.3-.3l-.3-.3c-1.2-1.2-2.3-2.5-3-3.8-.8-1.3-1.4-2.8-1.8-4.5 0 0 0-.1-.1-.4-.1-.2-.1-.4-.1-.5v-.4-.4c0-.2.3-.4.7-.6l1.2-.6 1.2-.6c.4-.2.6-.5.7-.7v-.5c0-.2-.1-.4-.2-.7-.1-.2-.1-.3-.2-.4-.1-.3-.2-.6-.3-1-.1-.3-.2-.7-.3-1.2s-.2-.8-.3-1c-.2-.8-.3-1.3-.5-1.4-.1-.1-.2-.1-.3-.1-.2-.1-.6-.1-1.1-.1H11c-.6.1-1.3.6-2.2 1.5-.8.9-1.4 1.8-1.6 2.8-.1.3-.1.5-.2.8v1.8c0 .2 0 .5.1 1 0 .5.1.8.1.9.1 1.2.3 2.2.6 3.2.5 1.6 1.3 3.3 2.3 5.2 1.1 1.8 2.2 3.4 3.3 4.6.7.7 1.5 1.4 2.5 2.1.1.1.3.2.7.5.4.3.7.5.8.6.2.1.4.2.7.4.3.2.6.3.9.5.3.1.5.2.8.3 1 .3 2.1.3 3.2 0 1.2-.3 2-.7 2.4-1.2.2-.2.4-.6.6-1s.4-.8.5-1.1c-.1-.4-.1-.5-.1-.6z"/></svg>