<?xml version="1.0" encoding="utf-8"?><svg xmlns="http://www.w3.org/2000/svg" width="20" height="20" viewBox="0 0 20 20"><path d="M11.3 14.506c-1.218-.094-1.73-.697-2.684-1.277C8.092 15.98 7.45 18.62 5.55 20c-.586-4.16.86-7.287 1.533-10.605-1.145-1.93.14-5.812 2.557-4.855 2.975 1.176-2.576 7.173 1.15 7.92 3.89.784 5.478-6.75 3.066-9.198C10.37-.275 3.71 3.182 4.528 8.245c.2 1.238 1.48 1.614.51 3.32-2.23-.493-2.895-2.252-2.81-4.598C2.365 3.127 5.677.44 9 .067c4.202-.47 8.144 1.543 8.688 5.495.614 4.46-1.896 9.292-6.388 8.944z"/></svg>