<?xml version="1.0" encoding="iso-8859-1"?><svg xmlns="http://www.w3.org/2000/svg" viewBox="0 0 20 20"><path d="M12.077 15.263H7.923c-.29 0-.527.242-.527.54 0 .298.236.54.527.54h4.153c.29 0 .527-.242.527-.54 0-.3-.235-.54-.526-.54zm-.095 1.797H8.018c-.29 0-.527.242-.527.54s.237.54.528.54h3.964c.29 0 .527-.242.527-.54s-.237-.54-.528-.54zm-3.937 1.773C9.072 19.805 9.177 20 9.587 20h.79c.4 0 .498-.18 1.578-1.167h-3.91zM16 5.896c0 3.656-3.07 5.705-3.07 8.59h-1.397c0-3.557 3.044-5.43 3.044-8.59 0-5.917-9.154-5.926-9.154 0 0 3.158 2.99 4.95 3.06 8.59H7.068C7.07 11.6 4 9.55 4 5.895c0-7.857 12-7.865 12 0zm-7.986.807l-1.176-.156c.256-2.024 1.486-3.523 3.484-3.902l.216 1.194C8.61 4.204 8.13 5.79 8.014 6.702z"/></svg>