<?xml version="1.0" encoding="iso-8859-1"?><svg xmlns="http://www.w3.org/2000/svg" viewBox="0 0 20 20"><path d="M14.192 4.6l-.9-.85L7.853 8.9 7.85 8.9l-.9.85.004.002-.004.003.9.85.004-.004 5.437 5.15.902-.85-5.437-5.15"/><path d="M13.29 16.438l-7.084-6.67.015-.015-.018-.018.405-.352L7.86 8.2l.003.003 5.427-5.14 1.63 1.535L9.48 9.75l5.437 5.152-1.63 1.536zM7.842 9.904l.356.332 5.094 4.826.172-.162-5.436-5.15 5.436-5.15-.172-.162-5.447 5.16-.004-.003-.142.134.02.017-.023.02.147.137z"/><path d="M13 1h6v6h-6zM13 13h6v6h-6zM2 6h6v7H2z"/></svg>