<?xml version="1.0" encoding="utf-8"?><svg xmlns="http://www.w3.org/2000/svg" width="20" height="20" viewBox="0 0 20 20"><path d="M20 3.797c-.735.326-1.526.547-2.356.646.847-.508 1.498-1.312 1.804-2.27-.793.47-1.67.812-2.605.996-.748-.798-1.814-1.297-2.995-1.297-2.266 0-4.103 1.837-4.103 4.104 0 .32.035.635.105.935-3.41-.172-6.434-1.806-8.457-4.288-.354.606-.556 1.31-.556 2.063 0 1.424.724 2.68 1.825 3.415-.672-.02-1.305-.206-1.858-.513v.05c0 1.988 1.414 3.647 3.29 4.024-.344.094-.705.143-1.08.143-.264 0-.52-.025-.77-.072.52 1.63 2.036 2.816 3.83 2.85-1.403 1.1-3.172 1.756-5.095 1.756-.332 0-.66-.02-.98-.056 1.816 1.164 3.973 1.844 6.29 1.844 7.547 0 11.675-6.254 11.675-11.675 0-.178-.004-.355-.012-.53.8-.58 1.497-1.303 2.047-2.126z"/></svg>