<?xml version="1.0" encoding="utf-8"?><svg xmlns="http://www.w3.org/2000/svg" width="20" height="20" viewBox="0 0 20 20"><path d="M18.996 3.974c-.7-.59-.954-.758-2.4-.83-.408-.02-3.974-.174-6.465-.174-2.335 0-5.786.142-6.82.176-1.12.1-1.537.16-2.15.685C.22 4.665 0 6.3 0 8.805v2.383c0 2.857.38 4.31 1.004 4.84.72.62 1.197.67 1.677.743.188.027 1.507.262 7.363.262 3.65 0 6.79-.173 7.115-.215.52-.065 1.27-.16 1.837-.79.838-.953 1.005-2.533 1.005-4.823V8.428c0-1.482-.083-3.576-1.004-4.454zM7.97 12.794V7.207l5.393 2.784-5.393 2.805z"/></svg>