<?xml version="1.0" encoding="utf-8"?>
<!-- Generator: Adobe Illustrator 15.0.0, SVG Export Plug-In . SVG Version: 6.00 Build 0)  -->
<!DOCTYPE svg PUBLIC "-//W3C//DTD SVG 1.1//EN" "http://www.w3.org/Graphics/SVG/1.1/DTD/svg11.dtd">
<svg version="1.1" id="Layer_1" xmlns="http://www.w3.org/2000/svg" xmlns:xlink="http://www.w3.org/1999/xlink" x="0px" y="0px"
	 width="20px" height="20px" viewBox="0 0 20 20" enable-background="new 0 0 20 20" xml:space="preserve">
<g>
	<g>
		<path fill="#010202" d="M10.534,11.418l-0.938-0.729c-0.286-0.237-0.677-0.549-0.677-1.122c0-0.575,0.391-0.94,0.73-1.279
			c1.092-0.86,2.183-1.775,2.183-3.704c0-1.983-1.248-3.026-1.845-3.521H11.6L13.293,0H8.165c-1.408,0-3.436,0.333-4.92,1.559
			C2.125,2.523,1.58,3.854,1.58,5.053c0,2.034,1.562,4.096,4.319,4.096c0.262,0,0.546-0.025,0.832-0.052
			C6.603,9.41,6.473,9.671,6.473,10.114c0,0.808,0.414,1.302,0.781,1.772c-1.173,0.08-3.36,0.211-4.973,1.201
			c-1.537,0.914-2.004,2.242-2.004,3.182c0,1.932,1.82,3.73,5.596,3.73c4.476,0,6.845-2.477,6.845-4.93
			C12.719,13.27,11.678,12.383,10.534,11.418z M7.124,8.418c-2.239,0-3.254-2.895-3.254-4.641c0-0.68,0.129-1.382,0.572-1.931
			c0.417-0.522,1.145-0.861,1.823-0.861c2.159,0,3.278,2.921,3.278,4.799c0,0.47-0.052,1.303-0.65,1.905
			C8.475,8.107,7.774,8.418,7.124,8.418z M7.149,18.906c-2.784,0-4.58-1.332-4.58-3.184s1.665-2.479,2.238-2.686
			c1.092-0.367,2.498-0.42,2.732-0.42c0.261,0,0.391,0,0.598,0.027c1.98,1.408,2.839,2.111,2.839,3.443
			C10.976,17.703,9.649,18.906,7.149,18.906z"/>
		<polygon fill="#010202" points="17.105,8.378 17.105,5.771 15.818,5.771 15.818,8.378 13.215,8.378 13.215,9.681 15.818,9.681 
			15.818,12.305 17.105,12.305 17.105,9.681 19.723,9.681 19.723,8.378 		"/>
	</g>
</g>
</svg>
