<?xml version="1.0" encoding="utf-8"?>
<!-- Generator: Adobe Illustrator 15.0.0, SVG Export Plug-In . SVG Version: 6.00 Build 0)  -->
<!DOCTYPE svg PUBLIC "-//W3C//DTD SVG 1.1//EN" "http://www.w3.org/Graphics/SVG/1.1/DTD/svg11.dtd">
<svg version="1.1" id="Layer_1" xmlns="http://www.w3.org/2000/svg" xmlns:xlink="http://www.w3.org/1999/xlink" x="0px" y="0px"
	 width="20px" height="20px" viewBox="0 0 20 20" enable-background="new 0 0 20 20" xml:space="preserve">
<path d="M16.836,0.085H2.994C1.34,0.085,0,1.426,0,3.08v13.84c0,1.654,1.341,2.995,2.995,2.995h13.842
	c1.654,0,2.995-1.341,3.164-2.938V3.136C19.831,1.426,18.49,0.085,16.836,0.085z M13.74,3.246c0-0.492,0.402-0.896,0.895-0.896
	h2.249c0.492,0,0.895,0.403,0.895,0.896v2.143c0,0.493-0.402,0.896-0.895,0.896h-2.249c-0.492,0-0.895-0.403-0.895-0.896V3.246z
	 M10.11,6.171c2.206,0,3.994,1.733,3.994,3.871s-1.788,3.87-3.994,3.87s-3.994-1.732-3.994-3.87S7.904,6.171,10.11,6.171z
	 M17.788,16.952c0,0.436-0.356,0.791-0.79,0.791H3.148c-0.435,0-0.791-0.355-0.791-0.791V8.551h1.826
	c-0.166,0.541-0.255,1.113-0.255,1.707c0,3.309,2.768,5.99,6.182,5.99c3.415,0,6.182-2.682,6.182-5.99
	c0-0.593-0.089-1.166-0.255-1.707h1.751l0,0V16.952z"/>
</svg>
