<?xml version="1.0" encoding="iso-8859-1"?>
<!-- Generator: Adobe Illustrator 18.1.0, SVG Export Plug-In . SVG Version: 6.00 Build 0)  -->
<svg version="1.1" id="phone" xmlns="http://www.w3.org/2000/svg" xmlns:xlink="http://www.w3.org/1999/xlink" x="0px" y="0px"
	 viewBox="0 0 80 80" style="enable-background:new 0 0 80 80;" xml:space="preserve">
<g id="Phone_1_">
	<path d="M47.248,80L47.248,80c-9.784,0-19.488-9.752-29.668-29.812C0.852,17.24,9.588,7.848,17.616,3.656
		c0.348-0.18,4.764-2.38,6.108-3.048l3.932-1.956l13.892,27.356l-9.196,4.568C32.12,31.9,32.74,35.88,35.46,41.256
		c2.744,5.42,5.608,8.292,6.808,8.876c1.424-0.7,5.344-2.64,5.572-2.756l3.544-1.78l13.799,26.85l-3.659,2.366l-1.508,0.748
		c-1.792,0.888-4.308,2.132-4.544,2.244l-0.364,0.168C53.484,78.724,50.76,80,47.248,80z M24.116,9.348l-2.624,1.308
		c-3.368,1.76-11.864,6.2,3.22,35.916C33.036,62.968,41.036,72,47.248,72l0,0c1.736,0,3.188-0.68,4.468-1.28l0.408-0.192
		c0.2-0.092,1.272-0.624,2.464-1.216l-6.696-13.04c-1.416,0.7-2.688,1.32-2.708,1.328c-0.764,0.38-1.76,0.608-2.8,0.608
		c-7.864,0-15.356-14.024-17.344-21.876c-2.008-7.936,0.568-11.228,3.088-12.588l2.632-1.308L24.116,9.348z"/>
</g>
</svg>
