<?xml version="1.0" encoding="utf-8"?>
<!-- Generator: Adobe Illustrator 15.0.0, SVG Export Plug-In . SVG Version: 6.00 Build 0)  -->
<!DOCTYPE svg PUBLIC "-//W3C//DTD SVG 1.1//EN" "http://www.w3.org/Graphics/SVG/1.1/DTD/svg11.dtd">
<svg version="1.1" id="Layer_1" xmlns="http://www.w3.org/2000/svg" xmlns:xlink="http://www.w3.org/1999/xlink" x="0px" y="0px"
	 width="20px" height="20px" viewBox="0 0 20 20" enable-background="new 0 0 20 20" xml:space="preserve">
<path d="M11.3,14.506c-1.218-0.094-1.729-0.697-2.684-1.277C8.092,15.982,7.45,18.621,5.55,20c-0.586-4.16,0.861-7.287,1.533-10.605
	C5.938,7.466,7.222,3.583,9.64,4.54c2.975,1.176-2.576,7.173,1.149,7.921c3.89,0.783,5.479-6.75,3.067-9.199
	C10.37-0.275,3.709,3.181,4.528,8.245c0.199,1.238,1.479,1.614,0.511,3.321c-2.23-0.494-2.896-2.253-2.812-4.599
	C2.366,3.128,5.679,0.439,9,0.068c4.202-0.47,8.144,1.542,8.688,5.494C18.302,10.022,15.792,14.854,11.3,14.506z"/>
</svg>
