<?xml version="1.0" encoding="iso-8859-1"?>
<!-- Generator: Adobe Illustrator 18.1.0, SVG Export Plug-In . SVG Version: 6.00 Build 0)  -->
<svg version="1.1" id="product_confessional" xmlns="http://www.w3.org/2000/svg" xmlns:xlink="http://www.w3.org/1999/xlink"
	 x="0px" y="0px" viewBox="0 0 20 20" style="enable-background:new 0 0 20 20;" xml:space="preserve">
<path id="light-bulb-12-icon" d="M12.077,15.263H7.923c-0.291,0-0.527,0.242-0.527,0.54c0,0.298,0.236,0.54,0.527,0.54h4.153
	c0.291,0,0.527-0.242,0.527-0.54C12.604,15.504,12.368,15.263,12.077,15.263z M11.982,17.06H8.018c-0.291,0-0.527,0.242-0.527,0.54
	s0.236,0.54,0.527,0.54h3.964c0.291,0,0.527-0.242,0.527-0.54S12.273,17.06,11.982,17.06z M8.045,18.833
	C9.072,19.805,9.177,20,9.587,20h0.789c0.4,0,0.499-0.181,1.579-1.167H8.045z M16,5.896c0,3.656-3.069,5.705-3.069,8.589h-1.398
	c0.001-3.556,3.044-5.428,3.044-8.589c0-5.917-9.154-5.926-9.154,0c0,3.158,2.99,4.95,3.059,8.589H7.069C7.069,11.6,4,9.552,4,5.896
	C4-1.961,16-1.969,16,5.896z M8.014,6.703L6.838,6.547c0.256-2.024,1.486-3.523,3.484-3.902l0.216,1.194
	C8.611,4.205,8.13,5.79,8.014,6.703z"/>
</svg>
