<?xml version="1.0" encoding="iso-8859-1"?>
<!-- Generator: Adobe Illustrator 18.1.0, SVG Export Plug-In . SVG Version: 6.00 Build 0)  -->
<svg version="1.1" id="search" xmlns="http://www.w3.org/2000/svg" xmlns:xlink="http://www.w3.org/1999/xlink" x="0px" y="0px"
	 viewBox="0 0 20 20" style="enable-background:new 0 0 20 20;" xml:space="preserve">
<g>
	<path id="magnifier-2-icon_1_" d="M18.92,17.235l-4.691-4.653c0.883-1.204,1.404-2.684,1.404-4.283c0-4.024-3.3-7.298-7.357-7.298
		C4.22,1,0.92,4.274,0.92,8.298c0,4.024,3.3,7.298,7.357,7.298c1.538,0,2.966-0.471,4.148-1.274L17.14,19L18.92,17.235z
		 M3.078,8.298c0-2.844,2.332-5.158,5.199-5.158c2.867,0,5.199,2.314,5.199,5.158c0,2.844-2.332,5.158-5.199,5.158
		C5.41,13.456,3.078,11.142,3.078,8.298z"/>
</g>
</svg>
