<?xml version="1.0" encoding="iso-8859-1"?>
<!-- Generator: Adobe Illustrator 18.1.0, SVG Export Plug-In . SVG Version: 6.00 Build 0)  -->
<svg version="1.1" id="social" xmlns="http://www.w3.org/2000/svg" xmlns:xlink="http://www.w3.org/1999/xlink" x="0px" y="0px"
	 viewBox="0 0 20 20" style="enable-background:new 0 0 20 20;" xml:space="preserve">
<ellipse style="display:none;" cx="5.916" cy="9.75" rx="3.103" ry="3"/>
<circle style="display:none;" cx="15.226" cy="2.75" r="2.5"/>
<circle style="display:none;" cx="15.226" cy="16.75" r="2.5"/>
<polygon style="display:none;stroke:#000000;stroke-miterlimit:10;" points="14.192,5.599 13.291,4.75 5.854,8.901 5.851,8.898 
	4.95,9.747 4.954,9.75 4.95,9.753 5.851,10.602 5.854,10.599 13.291,14.75 14.192,13.901 6.755,9.75 "/>
<g>
	<g>
		<polygon points="14.192,4.599 13.291,3.75 7.854,8.901 7.851,8.898 6.95,9.747 6.954,9.75 6.95,9.753 7.851,10.602 7.854,10.599 
			13.291,15.75 14.192,14.901 8.755,9.75 		"/>
		<path d="M13.29,16.438l-7.084-6.67l0.015-0.015L6.202,9.735l0.405-0.352l1.254-1.182l0.002,0.002l5.427-5.141l1.629,1.536
			L9.482,9.75l5.437,5.152L13.29,16.438z M7.842,9.904l0.356,0.332l5.094,4.826l0.172-0.162L8.028,9.75l5.436-5.15l-0.172-0.162
			L7.845,9.599L7.841,9.595L7.698,9.729l0.021,0.018L7.695,9.768L7.842,9.904L7.842,9.904z"/>
	</g>
	<rect x="13" y="1" width="6" height="6"/>
	<rect x="13" y="13" width="6" height="6"/>
	<rect x="2" y="6" width="6" height="7"/>
</g>
</svg>
