<?xml version="1.0" encoding="utf-8"?>
<!-- Generator: Adobe Illustrator 15.0.0, SVG Export Plug-In . SVG Version: 6.00 Build 0)  -->
<!DOCTYPE svg PUBLIC "-//W3C//DTD SVG 1.1//EN" "http://www.w3.org/Graphics/SVG/1.1/DTD/svg11.dtd">
<svg version="1.1" id="Layer_1" xmlns="http://www.w3.org/2000/svg" xmlns:xlink="http://www.w3.org/1999/xlink" x="0px" y="0px"
	 width="20px" height="20px" viewBox="0 0 20 20" enable-background="new 0 0 20 20" xml:space="preserve">
<path d="M20,3.797c-0.735,0.326-1.526,0.547-2.356,0.646c0.847-0.508,1.498-1.312,1.804-2.27c-0.793,0.47-1.671,0.812-2.605,0.996
	c-0.748-0.797-1.814-1.296-2.995-1.296c-2.266,0-4.103,1.837-4.103,4.104c0,0.321,0.035,0.635,0.105,0.935
	C6.439,6.74,3.416,5.106,1.393,2.624C1.039,3.23,0.837,3.935,0.837,4.687c0,1.424,0.724,2.68,1.825,3.415
	C1.99,8.081,1.357,7.896,0.804,7.589C0.803,7.606,0.803,7.623,0.803,7.64c0,1.988,1.415,3.647,3.292,4.024
	c-0.345,0.094-0.706,0.143-1.081,0.143c-0.264,0-0.521-0.025-0.771-0.072c0.521,1.629,2.037,2.816,3.832,2.85
	c-1.404,1.1-3.173,1.756-5.096,1.756c-0.331,0-0.658-0.02-0.979-0.057c1.816,1.164,3.973,1.844,6.29,1.844
	c7.547,0,11.675-6.254,11.675-11.675c0-0.178-0.004-0.355-0.012-0.531C18.754,5.342,19.45,4.62,20,3.797z"/>
</svg>
