<?xml version="1.0" encoding="utf-8"?>
<!-- Generator: Adobe Illustrator 15.0.0, SVG Export Plug-In . SVG Version: 6.00 Build 0)  -->
<!DOCTYPE svg PUBLIC "-//W3C//DTD SVG 1.1//EN" "http://www.w3.org/Graphics/SVG/1.1/DTD/svg11.dtd">
<svg version="1.1" id="Layer_1" xmlns="http://www.w3.org/2000/svg" xmlns:xlink="http://www.w3.org/1999/xlink" x="0px" y="0px"
	 width="20px" height="20px" viewBox="0 0 20 20" enable-background="new 0 0 20 20" xml:space="preserve">
<path d="M18.996,3.974c-0.699-0.591-0.954-0.758-2.399-0.831c-0.409-0.02-3.975-0.173-6.466-0.173c-2.336,0-5.787,0.142-6.82,0.176
	c-1.122,0.1-1.538,0.159-2.152,0.685C0.222,4.664,0,6.3,0,8.804v2.383c0,2.857,0.379,4.31,1.004,4.84
	c0.721,0.619,1.197,0.669,1.677,0.743c0.187,0.027,1.506,0.262,7.362,0.262c3.651,0,6.79-0.173,7.115-0.215
	c0.521-0.065,1.271-0.161,1.837-0.79C19.833,15.074,20,13.494,20,11.204V8.428C20,6.946,19.917,4.852,18.996,3.974z M7.97,12.795
	V7.206l5.393,2.784L7.97,12.795z"/>
</svg>
