<?xml version="1.0" encoding="utf-8"?>
<!-- Generator: Adobe Illustrator 18.1.0, SVG Export Plug-In . SVG Version: 6.00 Build 0)  -->
<svg version="1.1" xmlns="http://www.w3.org/2000/svg" xmlns:xlink="http://www.w3.org/1999/xlink" x="0px" y="0px"
	 viewBox="0 0 40 40" enable-background="new 0 0 40 40" xml:space="preserve">
<g id="arrow_1" display="none">
	<g display="inline">
		<path d="M37,3v34H3V3H37 M40,0H0v40h40V0L40,0z"/>
	</g>
	<polygon display="inline" stroke="#000000" stroke-miterlimit="10" points="22.5,15.7 21.6,14.8 17.4,19 17.4,19 16.5,19.8 
		16.5,19.8 16.5,19.8 17.4,20.7 17.4,20.7 21.6,24.8 22.5,24 18.2,19.8 	"/>
</g>
<g id="zoom">
	<g>
		<g>
			<path d="M38,2v36H2V2H38 M40,0H0v40h40V0L40,0z"/>
		</g>
		<g>
			<g>
				<rect x="18.9" y="11.5" width="2.1" height="17"/>
				<path d="M20.6,12v16h-1.1V12H20.6 M21.6,11h-1h-1.1h-1v1v16v1h1h1.1h1v-1V12V11L21.6,11z"/>
			</g>
			<g>
				<rect x="11.5" y="18.9" width="17" height="2.1"/>
				<path d="M28,19.4v1.1H12v-1.1H28 M29,18.4h-1H12h-1v1v1.1v1h1h16h1v-1v-1.1V18.4L29,18.4z"/>
			</g>
		</g>
	</g>
</g>
<g id="play_1" display="none">
	<g display="inline">
		<polygon points="13,12 13,28 27,20 		"/>
		<g>
			<path d="M38,2v36H2V2H38 M40,0H0v40h40V0L40,0z"/>
		</g>
	</g>
</g>
</svg>
